{"accessors" : [{"bufferView" : 0, "byteOffset" : 0, "componentType" : 5123, "count" : 107514, "type" : "SCALAR", "max" : [21776], "min" : [0]}, {"bufferView" : 1, "byteOffset" : 0, "componentType" : 5126, "count" : 21777, "type" : "VEC3", "max" : [0.9531490206718445, 0.8463019728660583, 0.7531470060348511], "min" : [-0.947746992111206, -0.8456230163574219, -0.7496749758720398], "name" : "POSITION"}, {"bufferView" : 1, "byteOffset" : 12, "componentType" : 5126, "count" : 21777, "type" : "VEC2", "max" : [0.9993360042572021, 0.9993360042572021], "min" : [0.0006639999919570982, 0.022700011730194092], "name" : "TEXCOORD_0"}, {"bufferView" : 1, "byteOffset" : 20, "componentType" : 5126, "count" : 21777, "type" : "VEC3", "max" : [1.0000042915344238, 1.0000039339065552, 1.0000039339065552], "min" : [-1.0000042915344238, -1.0000044107437134, -1.0000044107437134], "name" : "NORMAL"}], "asset" : {"generator" : "Aspose.3D 24.9.1", "version" : "2.0"}, "buffers" : [{"uri" : "data:application/octet-stream;base64,", "byteLength" : 911900}], "bufferViews" : [{"buffer" : 0, "byteOffset" : 0, "byteLength" : 215028, "target" : 34963}, {"buffer" : 0, "byteOffset" : 215032, "byteLength" : 696864, "byteStride" : 32, "target" : 34962}], "meshes" : [{"primitives" : [{"attributes" : {"POSITION" : 1, "TEXCOORD_0" : 2, "NORMAL" : 3}, "indices" : 0, "mode" : 4}], "name" : ""}], "nodes" : [{"mesh" : 0, "name" : ""}], "scene" : 0, "scenes" : [{"nodes" : [0]}]}