{"accessors" : [{"bufferView" : 0, "byteOffset" : 0, "componentType" : 5123, "count" : 120, "type" : "SCALAR", "max" : [41], "min" : [0]}, {"bufferView" : 1, "byteOffset" : 0, "componentType" : 5126, "count" : 42, "type" : "VEC3", "max" : [0.5328829884529114, 6.554523944854736, -0.2383899986743927], "min" : [-0.5334510207176208, 5.211352825164795, -0.2581470012664795], "name" : "POSITION"}, {"bufferView" : 1, "byteOffset" : 12, "componentType" : 5126, "count" : 42, "type" : "VEC2", "max" : [0.625, 0.6875], "min" : [0.375, 0.6135900020599365], "name" : "TEXCOORD_0"}, {"bufferView" : 1, "byteOffset" : 20, "componentType" : 5126, "count" : 42, "type" : "VEC3", "max" : [1.0000044107437134, 1.0000044107437134, 1.0000045449487516E-06], "min" : [-1.0000044107437134, -1.0000044107437134, -2.0000088625238277E-06], "name" : "NORMAL"}, {"bufferView" : 0, "byteOffset" : 240, "componentType" : 5123, "count" : 108, "type" : "SCALAR", "max" : [39], "min" : [0]}, {"bufferView" : 2, "byteOffset" : 0, "componentType" : 5126, "count" : 40, "type" : "VEC3", "max" : [0.13300800323486328, 6.154688835144043, -0.15765100717544556], "min" : [-0.13357600569725037, 5.8188958168029785, -0.2581470012664795], "name" : "POSITION"}, {"bufferView" : 2, "byteOffset" : 12, "componentType" : 5126, "count" : 40, "type" : "VEC2", "max" : [0.578125, 0.925000011920929], "min" : [0.421875, 0.08125001192092896], "name" : "TEXCOORD_0"}, {"bufferView" : 2, "byteOffset" : 20, "componentType" : 5126, "count" : 40, "type" : "VEC3", "max" : [0, -0, 1.0000044107437134], "min" : [0, -0, -1.0000044107437134], "name" : "NORMAL"}, {"bufferView" : 0, "byteOffset" : 456, "componentType" : 5123, "count" : 360, "type" : "SCALAR", "max" : [102], "min" : [0]}, {"bufferView" : 3, "byteOffset" : 0, "componentType" : 5126, "count" : 103, "type" : "VEC3", "max" : [0.5328829884529114, 6.554523944854736, -0.15765100717544556], "min" : [-0.5334510207176208, 5.211352825164795, -0.2383899986743927], "name" : "POSITION"}, {"bufferView" : 3, "byteOffset" : 12, "componentType" : 5126, "count" : 103, "type" : "VEC2", "max" : [0.65625, 0.6135900020599365], "min" : [0.34375, 0], "name" : "TEXCOORD_0"}, {"bufferView" : 3, "byteOffset" : 20, "componentType" : 5126, "count" : 103, "type" : "VEC3", "max" : [1.0000044107437134, 1.0000044107437134, 1.0000044107437134], "min" : [-1.0000044107437134, -1.0000044107437134, -2.0000081804028014E-06], "name" : "NORMAL"}, {"bufferView" : 0, "byteOffset" : 1176, "componentType" : 5123, "count" : 240, "type" : "SCALAR", "max" : [79], "min" : [0]}, {"bufferView" : 4, "byteOffset" : 0, "componentType" : 5126, "count" : 80, "type" : "VEC3", "max" : [0.521353006362915, 6.543034076690674, -0.15765100717544556], "min" : [-0.5219209790229797, 5.228265762329102, -0.2581470012664795], "name" : "POSITION"}, {"bufferView" : 4, "byteOffset" : 12, "componentType" : 5126, "count" : 80, "type" : "VEC2", "max" : [0.653997004032135, 0.9978449940681458], "min" : [0.346002995967865, 0.0034369826316833496], "name" : "TEXCOORD_0"}, {"bufferView" : 4, "byteOffset" : 20, "componentType" : 5126, "count" : 80, "type" : "VEC3", "max" : [-0, 0, 1.0000044107437134], "min" : [-0, 0, -1.0000044107437134], "name" : "NORMAL"}, {"bufferView" : 0, "byteOffset" : 1656, "componentType" : 5123, "count" : 120, "type" : "SCALAR", "max" : [39], "min" : [0]}, {"bufferView" : 5, "byteOffset" : 0, "componentType" : 5126, "count" : 40, "type" : "VEC3", "max" : [0.5328829884529114, 6.554523944854736, -0.2581470012664795], "min" : [-0.5334510207176208, 5.211353778839111, -0.2581470012664795], "name" : "POSITION"}, {"bufferView" : 5, "byteOffset" : 12, "componentType" : 5126, "count" : 40, "type" : "VEC2", "max" : [0.65625, 1], "min" : [0.34375, 0.6875], "name" : "TEXCOORD_0"}, {"bufferView" : 5, "byteOffset" : 20, "componentType" : 5126, "count" : 40, "type" : "VEC3", "max" : [0, 0, -1.0000044107437134], "min" : [0, 0, -1.0000044107437134], "name" : "NORMAL"}, {"bufferView" : 0, "byteOffset" : 1896, "componentType" : 5123, "count" : 1944, "type" : "SCALAR", "max" : [575], "min" : [0]}, {"bufferView" : 6, "byteOffset" : 0, "componentType" : 5126, "count" : 576, "type" : "VEC3", "max" : [2.1094539165496826, 3.039033889770508, 0.27891600131988525], "min" : [-2.0879690647125244, 0.005671999882906675, -0.6776739954948425], "name" : "POSITION"}, {"bufferView" : 6, "byteOffset" : 12, "componentType" : 5126, "count" : 576, "type" : "VEC2", "max" : [0.875, 1], "min" : [0.125, 0], "name" : "TEXCOORD_0"}, {"bufferView" : 6, "byteOffset" : 20, "componentType" : 5126, "count" : 576, "type" : "VEC3", "max" : [1.0000044107437134, 1.0000044107437134, 1.0000044107437134], "min" : [-1.0000044107437134, -1.0000044107437134, -1.0000044107437134], "name" : "NORMAL"}], "asset" : {"generator" : "Aspose.3D 24.9.1", "version" : "2.0"}, "buffers" : [{"uri" : "data:application/octet-stream;base64,", "byteLength" : 34004}], "bufferViews" : [{"buffer" : 0, "byteOffset" : 0, "byteLength" : 5784, "target" : 34963}, {"buffer" : 0, "byteOffset" : 5788, "byteLength" : 1344, "byteStride" : 32, "target" : 34962}, {"buffer" : 0, "byteOffset" : 7136, "byteLength" : 1280, "byteStride" : 32, "target" : 34962}, {"buffer" : 0, "byteOffset" : 8420, "byteLength" : 3296, "byteStride" : 32, "target" : 34962}, {"buffer" : 0, "byteOffset" : 11720, "byteLength" : 2560, "byteStride" : 32, "target" : 34962}, {"buffer" : 0, "byteOffset" : 14284, "byteLength" : 1280, "byteStride" : 32, "target" : 34962}, {"buffer" : 0, "byteOffset" : 15568, "byteLength" : 18432, "byteStride" : 32, "target" : 34962}], "materials" : [{"name" : "aiStandardSurface2SG", "pbrMetallicRoughness" : {"baseColorFactor" : [0, 0, 0, 1], "metallicFactor" : 1, "roughnessFactor" : 1}, "emissiveFactor" : [0, 0, 0], "alphaMode" : "OPAQUE", "doubleSided" : false}, {"name" : "aiStandardSurface1SG", "pbrMetallicRoughness" : {"baseColorFactor" : [0, 0, 0, 1], "metallicFactor" : 1, "roughnessFactor" : 1}, "emissiveFactor" : [0, 0, 0], "alphaMode" : "OPAQUE", "doubleSided" : false}, {"name" : "initialShadingGroup", "pbrMetallicRoughness" : {"baseColorFactor" : [0.48, 0.23, 0.75, 1], "metallicFactor" : 1, "roughnessFactor" : 1}, "emissiveFactor" : [0, 0, 0], "alphaMode" : "OPAQUE", "doubleSided" : false}], "meshes" : [{"primitives" : [{"attributes" : {"POSITION" : 1, "TEXCOORD_0" : 2, "NORMAL" : 3}, "indices" : 0, "material" : 0, "mode" : 4}, {"attributes" : {"POSITION" : 5, "TEXCOORD_0" : 6, "NORMAL" : 7}, "indices" : 4, "material" : 1, "mode" : 4}, {"attributes" : {"POSITION" : 9, "TEXCOORD_0" : 10, "NORMAL" : 11}, "indices" : 8, "material" : 0, "mode" : 4}, {"attributes" : {"POSITION" : 13, "TEXCOORD_0" : 14, "NORMAL" : 15}, "indices" : 12, "material" : 1, "mode" : 4}, {"attributes" : {"POSITION" : 17, "TEXCOORD_0" : 18, "NORMAL" : 19}, "indices" : 16, "material" : 0, "mode" : 4}], "name" : ""}, {"primitives" : [{"attributes" : {"POSITION" : 21, "TEXCOORD_0" : 22, "NORMAL" : 23}, "indices" : 20, "material" : 2, "mode" : 4}], "name" : ""}], "nodes" : [{"mesh" : 0, "name" : "pCylinder1"}, {"mesh" : 1, "name" : "group9_pasted__group8_pasted__pasted__group7_pasted__pasted__pasted__pCube1"}], "scene" : 0, "scenes" : [{"nodes" : [0, 1]}]}