{"accessors" : [{"bufferView" : 0, "byteOffset" : 0, "componentType" : 5123, "count" : 570, "type" : "SCALAR", "max" : [357], "min" : [0]}, {"bufferView" : 1, "byteOffset" : 0, "componentType" : 5126, "count" : 358, "type" : "VEC3", "max" : [1, 1, 2.5986671447753906], "min" : [-1.002920389175415, -2.438612937927246, -1.7798099517822266], "name" : "POSITION"}, {"bufferView" : 1, "byteOffset" : 12, "componentType" : 5126, "count" : 358, "type" : "VEC3", "max" : [1.0000044107437134, 1.0000044107437134, 1.0000044107437134], "min" : [-1.0000044107437134, -1.0000044107437134, -1.0000044107437134], "name" : "NORMAL"}, {"bufferView" : 1, "byteOffset" : 24, "componentType" : 5126, "count" : 358, "type" : "VEC2", "max" : [0.875, 2], "min" : [0, 1], "name" : "TEXCOORD_0"}], "asset" : {"generator" : "Aspose.3D 24.9.1", "version" : "2.0"}, "buffers" : [{"uri" : "data:application/octet-stream;base64,", "byteLength" : 12604}], "bufferViews" : [{"buffer" : 0, "byteOffset" : 0, "byteLength" : 1140, "target" : 34963}, {"buffer" : 0, "byteOffset" : 1144, "byteLength" : 11456, "byteStride" : 32, "target" : 34962}], "materials" : [{"name" : "Material", "pbrMetallicRoughness" : {"baseColorFactor" : [0.8001565933227539, 0.10151387751102448, 0.7758449912071228, 1], "metallicFactor" : 0, "roughnessFactor" : 0.5}, "emissiveFactor" : [0, 0, 0], "alphaMode" : "OPAQUE", "doubleSided" : true}], "meshes" : [{"primitives" : [{"attributes" : {"POSITION" : 1, "NORMAL" : 2, "TEXCOORD_0" : 3}, "indices" : 0, "material" : 0, "mode" : 4}]}], "nodes" : [{"matrix" : [2.7964986997080574, -0.0737275121610907, 0.5274086653108914, 0, -0.09453026013906989, -3.079085366448129, 0.07079986653667802, 0, 0.08243343740545003, -0.012621697297533216, -0.4388543429861682, 0, 0, 0, 0, 1], "mesh" : 0, "name" : "Cube"}], "scene" : 0, "scenes" : [{"nodes" : [0]}]}