{
	"asset":{
		"generator":"Khronos glTF Blender I/O v4.2.70",
		"version":"2.0"
	},
	"scene":0,
	"scenes":[
		{
			"name":"Scene",
			"nodes":[
				0,
				1,
				2,
				3,
				4,
				5,
				6,
				7
			]
		}
	],
	"nodes":[
		{
			"mesh":0,
			"name":"WINDOW",
			"rotation":[
				0.70710688829422,
				0,
				0,
				0.7071066498756409
			]
		},
		{
			"mesh":1,
			"name":"LOUVER",
			"rotation":[
				0.70710688829422,
				0,
				0,
				0.7071066498756409
			]
		},
		{
			"mesh":2,
			"name":"FLOOR",
			"rotation":[
				0.70710688829422,
				0,
				0,
				0.7071066498756409
			]
		},
		{
			"mesh":3,
			"name":"RAIL",
			"rotation":[
				0.70710688829422,
				0,
				0,
				0.7071066498756409
			]
		},
		{
			"mesh":4,
			"name":"WALL",
			"rotation":[
				0.70710688829422,
				0,
				0,
				0.7071066498756409
			]
		},
		{
			"mesh":5,
			"name":"PERGOLA",
			"rotation":[
				0.70710688829422,
				0,
				0,
				0.7071066498756409
			]
		},
		{
			"mesh":6,
			"name":"ROOF",
			"rotation":[
				0.70710688829422,
				0,
				0,
				0.7071066498756409
			]
		},
		{
			"mesh":7,
			"name":"DOOR",
			"rotation":[
				0.70710688829422,
				0,
				0,
				0.7071066498756409
			]
		}
	],
	"materials":[
		{
			"doubleSided":true,
			"name":"Glass_1",
			"pbrMetallicRoughness":{
				"baseColorFactor":[
					0.0038999998942017555,
					0,
					0.07840000092983246,
					1
				],
				"metallicFactor":0,
				"roughnessFactor":0.5
			}
		},
		{
			"doubleSided":true,
			"name":"wire_008008136",
			"pbrMetallicRoughness":{
				"baseColorFactor":[
					0.03139999881386757,
					0.03139999881386757,
					0.53329998254776,
					1
				],
				"metallicFactor":0,
				"roughnessFactor":0.5
			}
		},
		{
			"doubleSided":true,
			"name":"Wood",
			"pbrMetallicRoughness":{
				"baseColorFactor":[
					0.5879999995231628,
					0.5879999995231628,
					0.5879999995231628,
					1
				],
				"metallicFactor":0,
				"roughnessFactor":0.5
			}
		},
		{
			"doubleSided":true,
			"name":"wire_214229166",
			"pbrMetallicRoughness":{
				"baseColorFactor":[
					0.8392000198364258,
					0.8980000019073486,
					0.6510000228881836,
					1
				],
				"metallicFactor":0,
				"roughnessFactor":0.5
			}
		},
		{
			"doubleSided":true,
			"name":"Concrete",
			"pbrMetallicRoughness":{
				"baseColorFactor":[
					0.5879999995231628,
					0.5879999995231628,
					0.5879999995231628,
					1
				],
				"metallicFactor":0,
				"roughnessFactor":0.5
			}
		},
		{
			"doubleSided":true,
			"name":"Glass_2",
			"pbrMetallicRoughness":{
				"baseColorFactor":[
					0,
					0.5647000074386597,
					1,
					1
				],
				"metallicFactor":0,
				"roughnessFactor":0.5
			}
		},
		{
			"doubleSided":true,
			"name":"wire_225143087",
			"pbrMetallicRoughness":{
				"baseColorFactor":[
					0.8823999762535095,
					0.5608000159263611,
					0.34119999408721924,
					1
				],
				"metallicFactor":0,
				"roughnessFactor":0.5
			}
		},
		{
			"doubleSided":true,
			"name":"wire_113135006",
			"pbrMetallicRoughness":{
				"baseColorFactor":[
					0.4431000053882599,
					0.5293999910354614,
					0.023499999195337296,
					1
				],
				"metallicFactor":0,
				"roughnessFactor":0.5
			}
		},
		{
			"doubleSided":true,
			"name":"wire_227153153",
			"pbrMetallicRoughness":{
				"baseColorFactor":[
					0.8902000188827515,
					0.6000000238418579,
					0.6000000238418579,
					1
				],
				"metallicFactor":0,
				"roughnessFactor":0.5
			}
		},
		{
			"doubleSided":true,
			"name":"wire_177147027",
			"pbrMetallicRoughness":{
				"baseColorFactor":[
					0.694100022315979,
					0.5764999985694885,
					0.10589999705553055,
					1
				],
				"metallicFactor":0,
				"roughnessFactor":0.5
			}
		},
		{
			"doubleSided":true,
			"name":"wire_166229229",
			"pbrMetallicRoughness":{
				"baseColorFactor":[
					0.6510000228881836,
					0.8980000019073486,
					0.8980000019073486,
					1
				],
				"metallicFactor":0,
				"roughnessFactor":0.5
			}
		}
	],
	"meshes":[
		{
			"name":"WINDOW",
			"primitives":[
				{
					"attributes":{
						"POSITION":0,
						"NORMAL":1,
						"TEXCOORD_0":2
					},
					"indices":3,
					"material":0
				},
				{
					"attributes":{
						"POSITION":4,
						"NORMAL":5,
						"TEXCOORD_0":6
					},
					"indices":7,
					"material":1
				}
			]
		},
		{
			"name":"LOUVER",
			"primitives":[
				{
					"attributes":{
						"POSITION":8,
						"NORMAL":9,
						"TEXCOORD_0":10
					},
					"indices":11,
					"material":2
				}
			]
		},
		{
			"name":"FLOOR",
			"primitives":[
				{
					"attributes":{
						"POSITION":12,
						"NORMAL":13,
						"TEXCOORD_0":14
					},
					"indices":15,
					"material":3
				},
				{
					"attributes":{
						"POSITION":16,
						"NORMAL":17,
						"TEXCOORD_0":18
					},
					"indices":19,
					"material":4
				}
			]
		},
		{
			"name":"RAIL",
			"primitives":[
				{
					"attributes":{
						"POSITION":20,
						"NORMAL":21,
						"TEXCOORD_0":22
					},
					"indices":23,
					"material":5
				},
				{
					"attributes":{
						"POSITION":24,
						"NORMAL":25,
						"TEXCOORD_0":26
					},
					"indices":27,
					"material":6
				}
			]
		},
		{
			"name":"WALL",
			"primitives":[
				{
					"attributes":{
						"POSITION":28,
						"NORMAL":29,
						"TEXCOORD_0":30
					},
					"indices":31,
					"material":7
				}
			]
		},
		{
			"name":"PERGOLA",
			"primitives":[
				{
					"attributes":{
						"POSITION":32,
						"NORMAL":33,
						"TEXCOORD_0":34
					},
					"indices":35,
					"material":8
				},
				{
					"attributes":{
						"POSITION":36,
						"NORMAL":37,
						"TEXCOORD_0":38
					},
					"indices":39,
					"material":2
				}
			]
		},
		{
			"name":"ROOF",
			"primitives":[
				{
					"attributes":{
						"POSITION":40,
						"NORMAL":41,
						"TEXCOORD_0":42
					},
					"indices":43,
					"material":9
				},
				{
					"attributes":{
						"POSITION":44,
						"NORMAL":45,
						"TEXCOORD_0":46
					},
					"indices":47,
					"material":4
				}
			]
		},
		{
			"name":"DOOR",
			"primitives":[
				{
					"attributes":{
						"POSITION":48,
						"NORMAL":49,
						"TEXCOORD_0":50
					},
					"indices":51,
					"material":0
				},
				{
					"attributes":{
						"POSITION":52,
						"NORMAL":53,
						"TEXCOORD_0":54
					},
					"indices":55,
					"material":10
				},
				{
					"attributes":{
						"POSITION":56,
						"NORMAL":57,
						"TEXCOORD_0":58
					},
					"indices":59,
					"material":2
				}
			]
		}
	],
	"accessors":[
		{
			"bufferView":0,
			"componentType":5126,
			"count":336,
			"max":[
				202.88479614257812,
				82.88529968261719,
				-49.999698638916016
			],
			"min":[
				-322.8840026855469,
				-163.88499450683594,
				-231.9987030029297
			],
			"type":"VEC3"
		},
		{
			"bufferView":1,
			"componentType":5126,
			"count":336,
			"type":"VEC3"
		},
		{
			"bufferView":2,
			"componentType":5126,
			"count":336,
			"type":"VEC2"
		},
		{
			"bufferView":3,
			"componentType":5123,
			"count":504,
			"type":"SCALAR"
		},
		{
			"bufferView":4,
			"componentType":5126,
			"count":1388,
			"max":[
				203.99899291992188,
				83.99949645996094,
				-47.999698638916016
			],
			"min":[
				-323.9981994628906,
				-164.9990997314453,
				-233.9987030029297
			],
			"type":"VEC3"
		},
		{
			"bufferView":5,
			"componentType":5126,
			"count":1388,
			"type":"VEC3"
		},
		{
			"bufferView":6,
			"componentType":5126,
			"count":1388,
			"type":"VEC2"
		},
		{
			"bufferView":7,
			"componentType":5123,
			"count":2424,
			"type":"SCALAR"
		},
		{
			"bufferView":8,
			"componentType":5126,
			"count":2904,
			"max":[
				209.99899291992188,
				83.99949645996094,
				-17.999900817871094
			],
			"min":[
				-323.9981994628906,
				-250.99859619140625,
				-235.99859619140625
			],
			"type":"VEC3"
		},
		{
			"bufferView":9,
			"componentType":5126,
			"count":2904,
			"type":"VEC3"
		},
		{
			"bufferView":10,
			"componentType":5126,
			"count":2904,
			"type":"VEC2"
		},
		{
			"bufferView":11,
			"componentType":5123,
			"count":4476,
			"type":"SCALAR"
		},
		{
			"bufferView":12,
			"componentType":5126,
			"count":247,
			"max":[
				323.9981994628906,
				251.99859619140625,
				0
			],
			"min":[
				-323.998291015625,
				-251.99859619140625,
				-149.9990997314453
			],
			"type":"VEC3"
		},
		{
			"bufferView":13,
			"componentType":5126,
			"count":247,
			"type":"VEC3"
		},
		{
			"bufferView":14,
			"componentType":5126,
			"count":247,
			"type":"VEC2"
		},
		{
			"bufferView":15,
			"componentType":5123,
			"count":516,
			"type":"SCALAR"
		},
		{
			"bufferView":16,
			"componentType":5126,
			"count":12,
			"max":[
				-191.9989013671875,
				-167.9990997314453,
				0
			],
			"min":[
				-191.99899291992188,
				-251.99859619140625,
				-17.999900817871094
			],
			"type":"VEC3"
		},
		{
			"bufferView":17,
			"componentType":5126,
			"count":12,
			"type":"VEC3"
		},
		{
			"bufferView":18,
			"componentType":5126,
			"count":12,
			"type":"VEC2"
		},
		{
			"bufferView":19,
			"componentType":5123,
			"count":24,
			"type":"SCALAR"
		},
		{
			"bufferView":20,
			"componentType":5126,
			"count":120,
			"max":[
				323.2481994628906,
				251.24859619140625,
				-17.999900817871094
			],
			"min":[
				-53.249698638916016,
				-167.2490997314453,
				-179.99899291992188
			],
			"type":"VEC3"
		},
		{
			"bufferView":21,
			"componentType":5126,
			"count":120,
			"type":"VEC3"
		},
		{
			"bufferView":22,
			"componentType":5126,
			"count":120,
			"type":"VEC2"
		},
		{
			"bufferView":23,
			"componentType":5123,
			"count":180,
			"type":"SCALAR"
		},
		{
			"bufferView":24,
			"componentType":5126,
			"count":336,
			"max":[
				323.9981994628906,
				251.99859619140625,
				-17.999900817871094
			],
			"min":[
				-53.999698638916016,
				-167.9990997314453,
				-181.99899291992188
			],
			"type":"VEC3"
		},
		{
			"bufferView":25,
			"componentType":5126,
			"count":336,
			"type":"VEC3"
		},
		{
			"bufferView":26,
			"componentType":5126,
			"count":336,
			"type":"VEC2"
		},
		{
			"bufferView":27,
			"componentType":5123,
			"count":504,
			"type":"SCALAR"
		},
		{
			"bufferView":28,
			"componentType":5126,
			"count":1070,
			"max":[
				203.9989013671875,
				119.99929809570312,
				-17.999900817871094
			],
			"min":[
				-323.99810791015625,
				-251.99859619140625,
				-271.9985046386719
			],
			"type":"VEC3"
		},
		{
			"bufferView":29,
			"componentType":5126,
			"count":1070,
			"type":"VEC3"
		},
		{
			"bufferView":30,
			"componentType":5126,
			"count":1070,
			"type":"VEC2"
		},
		{
			"bufferView":31,
			"componentType":5123,
			"count":2028,
			"type":"SCALAR"
		},
		{
			"bufferView":32,
			"componentType":5126,
			"count":210,
			"max":[
				323.9981994628906,
				251.99859619140625,
				-17.999900817871094
			],
			"min":[
				-53.999698638916016,
				-167.9990997314453,
				-257.9985046386719
			],
			"type":"VEC3"
		},
		{
			"bufferView":33,
			"componentType":5126,
			"count":210,
			"type":"VEC3"
		},
		{
			"bufferView":34,
			"componentType":5126,
			"count":210,
			"type":"VEC2"
		},
		{
			"bufferView":35,
			"componentType":5123,
			"count":360,
			"type":"SCALAR"
		},
		{
			"bufferView":36,
			"componentType":5126,
			"count":1080,
			"max":[
				311.998291015625,
				239.99859619140625,
				-107.99939727783203
			],
			"min":[
				-35.99980163574219,
				-147.99920654296875,
				-251.99859619140625
			],
			"type":"VEC3"
		},
		{
			"bufferView":37,
			"componentType":5126,
			"count":1080,
			"type":"VEC3"
		},
		{
			"bufferView":38,
			"componentType":5126,
			"count":1080,
			"type":"VEC2"
		},
		{
			"bufferView":39,
			"componentType":5123,
			"count":1620,
			"type":"SCALAR"
		},
		{
			"bufferView":40,
			"componentType":5126,
			"count":20,
			"max":[
				197.9989013671875,
				77.99960327148438,
				-251.99859619140625
			],
			"min":[
				-317.9981994628906,
				-161.9990997314453,
				-257.99859619140625
			],
			"type":"VEC3"
		},
		{
			"bufferView":41,
			"componentType":5126,
			"count":20,
			"type":"VEC3"
		},
		{
			"bufferView":42,
			"componentType":5126,
			"count":20,
			"type":"VEC2"
		},
		{
			"bufferView":43,
			"componentType":5123,
			"count":30,
			"type":"SCALAR"
		},
		{
			"bufferView":44,
			"componentType":5126,
			"count":4,
			"max":[
				197.9989013671875,
				77.99960327148438,
				-257.99859619140625
			],
			"min":[
				-317.9981994628906,
				-161.9990997314453,
				-257.99859619140625
			],
			"type":"VEC3"
		},
		{
			"bufferView":45,
			"componentType":5126,
			"count":4,
			"type":"VEC3"
		},
		{
			"bufferView":46,
			"componentType":5126,
			"count":4,
			"type":"VEC2"
		},
		{
			"bufferView":47,
			"componentType":5123,
			"count":6,
			"type":"SCALAR"
		},
		{
			"bufferView":48,
			"componentType":5126,
			"count":72,
			"max":[
				201.4351043701172,
				81.43560028076172,
				-19.999799728393555
			],
			"min":[
				-279.9984130859375,
				-153.43519592285156,
				-231.99859619140625
			],
			"type":"VEC3"
		},
		{
			"bufferView":49,
			"componentType":5126,
			"count":72,
			"type":"VEC3"
		},
		{
			"bufferView":50,
			"componentType":5126,
			"count":72,
			"type":"VEC2"
		},
		{
			"bufferView":51,
			"componentType":5123,
			"count":108,
			"type":"SCALAR"
		},
		{
			"bufferView":52,
			"componentType":5126,
			"count":456,
			"max":[
				203.99899291992188,
				83.99949645996094,
				-17.999900817871094
			],
			"min":[
				-246.64280700683594,
				-155.9990997314453,
				-233.99859619140625
			],
			"type":"VEC3"
		},
		{
			"bufferView":53,
			"componentType":5126,
			"count":456,
			"type":"VEC3"
		},
		{
			"bufferView":54,
			"componentType":5126,
			"count":456,
			"type":"VEC2"
		},
		{
			"bufferView":55,
			"componentType":5123,
			"count":972,
			"type":"SCALAR"
		},
		{
			"bufferView":56,
			"componentType":5126,
			"count":822,
			"max":[
				-221.9987030029297,
				-149.99920654296875,
				-17.999900817871094
			],
			"min":[
				-281.9984130859375,
				-156.9990997314453,
				-101.99949645996094
			],
			"type":"VEC3"
		},
		{
			"bufferView":57,
			"componentType":5126,
			"count":822,
			"type":"VEC3"
		},
		{
			"bufferView":58,
			"componentType":5126,
			"count":822,
			"type":"VEC2"
		},
		{
			"bufferView":59,
			"componentType":5123,
			"count":1350,
			"type":"SCALAR"
		}
	],
	"bufferViews":[
		{
			"buffer":0,
			"byteLength":4032,
			"byteOffset":0,
			"target":34962
		},
		{
			"buffer":0,
			"byteLength":4032,
			"byteOffset":4032,
			"target":34962
		},
		{
			"buffer":0,
			"byteLength":2688,
			"byteOffset":8064,
			"target":34962
		},
		{
			"buffer":0,
			"byteLength":1008,
			"byteOffset":10752,
			"target":34963
		},
		{
			"buffer":0,
			"byteLength":16656,
			"byteOffset":11760,
			"target":34962
		},
		{
			"buffer":0,
			"byteLength":16656,
			"byteOffset":28416,
			"target":34962
		},
		{
			"buffer":0,
			"byteLength":11104,
			"byteOffset":45072,
			"target":34962
		},
		{
			"buffer":0,
			"byteLength":4848,
			"byteOffset":56176,
			"target":34963
		},
		{
			"buffer":0,
			"byteLength":34848,
			"byteOffset":61024,
			"target":34962
		},
		{
			"buffer":0,
			"byteLength":34848,
			"byteOffset":95872,
			"target":34962
		},
		{
			"buffer":0,
			"byteLength":23232,
			"byteOffset":130720,
			"target":34962
		},
		{
			"buffer":0,
			"byteLength":8952,
			"byteOffset":153952,
			"target":34963
		},
		{
			"buffer":0,
			"byteLength":2964,
			"byteOffset":162904,
			"target":34962
		},
		{
			"buffer":0,
			"byteLength":2964,
			"byteOffset":165868,
			"target":34962
		},
		{
			"buffer":0,
			"byteLength":1976,
			"byteOffset":168832,
			"target":34962
		},
		{
			"buffer":0,
			"byteLength":1032,
			"byteOffset":170808,
			"target":34963
		},
		{
			"buffer":0,
			"byteLength":144,
			"byteOffset":171840,
			"target":34962
		},
		{
			"buffer":0,
			"byteLength":144,
			"byteOffset":171984,
			"target":34962
		},
		{
			"buffer":0,
			"byteLength":96,
			"byteOffset":172128,
			"target":34962
		},
		{
			"buffer":0,
			"byteLength":48,
			"byteOffset":172224,
			"target":34963
		},
		{
			"buffer":0,
			"byteLength":1440,
			"byteOffset":172272,
			"target":34962
		},
		{
			"buffer":0,
			"byteLength":1440,
			"byteOffset":173712,
			"target":34962
		},
		{
			"buffer":0,
			"byteLength":960,
			"byteOffset":175152,
			"target":34962
		},
		{
			"buffer":0,
			"byteLength":360,
			"byteOffset":176112,
			"target":34963
		},
		{
			"buffer":0,
			"byteLength":4032,
			"byteOffset":176472,
			"target":34962
		},
		{
			"buffer":0,
			"byteLength":4032,
			"byteOffset":180504,
			"target":34962
		},
		{
			"buffer":0,
			"byteLength":2688,
			"byteOffset":184536,
			"target":34962
		},
		{
			"buffer":0,
			"byteLength":1008,
			"byteOffset":187224,
			"target":34963
		},
		{
			"buffer":0,
			"byteLength":12840,
			"byteOffset":188232,
			"target":34962
		},
		{
			"buffer":0,
			"byteLength":12840,
			"byteOffset":201072,
			"target":34962
		},
		{
			"buffer":0,
			"byteLength":8560,
			"byteOffset":213912,
			"target":34962
		},
		{
			"buffer":0,
			"byteLength":4056,
			"byteOffset":222472,
			"target":34963
		},
		{
			"buffer":0,
			"byteLength":2520,
			"byteOffset":226528,
			"target":34962
		},
		{
			"buffer":0,
			"byteLength":2520,
			"byteOffset":229048,
			"target":34962
		},
		{
			"buffer":0,
			"byteLength":1680,
			"byteOffset":231568,
			"target":34962
		},
		{
			"buffer":0,
			"byteLength":720,
			"byteOffset":233248,
			"target":34963
		},
		{
			"buffer":0,
			"byteLength":12960,
			"byteOffset":233968,
			"target":34962
		},
		{
			"buffer":0,
			"byteLength":12960,
			"byteOffset":246928,
			"target":34962
		},
		{
			"buffer":0,
			"byteLength":8640,
			"byteOffset":259888,
			"target":34962
		},
		{
			"buffer":0,
			"byteLength":3240,
			"byteOffset":268528,
			"target":34963
		},
		{
			"buffer":0,
			"byteLength":240,
			"byteOffset":271768,
			"target":34962
		},
		{
			"buffer":0,
			"byteLength":240,
			"byteOffset":272008,
			"target":34962
		},
		{
			"buffer":0,
			"byteLength":160,
			"byteOffset":272248,
			"target":34962
		},
		{
			"buffer":0,
			"byteLength":60,
			"byteOffset":272408,
			"target":34963
		},
		{
			"buffer":0,
			"byteLength":48,
			"byteOffset":272468,
			"target":34962
		},
		{
			"buffer":0,
			"byteLength":48,
			"byteOffset":272516,
			"target":34962
		},
		{
			"buffer":0,
			"byteLength":32,
			"byteOffset":272564,
			"target":34962
		},
		{
			"buffer":0,
			"byteLength":12,
			"byteOffset":272596,
			"target":34963
		},
		{
			"buffer":0,
			"byteLength":864,
			"byteOffset":272608,
			"target":34962
		},
		{
			"buffer":0,
			"byteLength":864,
			"byteOffset":273472,
			"target":34962
		},
		{
			"buffer":0,
			"byteLength":576,
			"byteOffset":274336,
			"target":34962
		},
		{
			"buffer":0,
			"byteLength":216,
			"byteOffset":274912,
			"target":34963
		},
		{
			"buffer":0,
			"byteLength":5472,
			"byteOffset":275128,
			"target":34962
		},
		{
			"buffer":0,
			"byteLength":5472,
			"byteOffset":280600,
			"target":34962
		},
		{
			"buffer":0,
			"byteLength":3648,
			"byteOffset":286072,
			"target":34962
		},
		{
			"buffer":0,
			"byteLength":1944,
			"byteOffset":289720,
			"target":34963
		},
		{
			"buffer":0,
			"byteLength":9864,
			"byteOffset":291664,
			"target":34962
		},
		{
			"buffer":0,
			"byteLength":9864,
			"byteOffset":301528,
			"target":34962
		},
		{
			"buffer":0,
			"byteLength":6576,
			"byteOffset":311392,
			"target":34962
		},
		{
			"buffer":0,
			"byteLength":2700,
			"byteOffset":317968,
			"target":34963
		}
	],
	"buffers":[
		{
			"byteLength":320668,
			"uri":"Modern%20House_9_blender.bin"
		}
	]
}
