{
	"asset":{
		"generator":"Khronos glTF Blender I/O v4.2.70",
		"version":"2.0"
	},
	"scene":0,
	"scenes":[
		{
			"name":"Scene",
			"nodes":[
				0,
				1,
				2
			]
		}
	],
	"nodes":[
		{
			"mesh":0,
			"name":"\u30d3\u30eb1",
			"translation":[
				-24.283971786499023,
				72.4657211303711,
				13.005779266357422
			]
		},
		{
			"mesh":1,
			"name":"\u5e8a",
			"scale":[
				150.49903869628906,
				150.49903869628906,
				150.49903869628906
			]
		},
		{
			"mesh":2,
			"name":"\u30d3\u30eb2",
			"rotation":[
				0,
				0.7071068286895752,
				0,
				0.7071068286895752
			],
			"translation":[
				35.34192657470703,
				44.478275299072266,
				-0.9422836303710938
			]
		}
	],
	"materials":[
		{
			"doubleSided":true,
			"name":"\u30d3\u30eb",
			"pbrMetallicRoughness":{
				"metallicFactor":0,
				"roughnessFactor":0
			}
		},
		{
			"doubleSided":true,
			"name":"\u30d3\u30eb2",
			"pbrMetallicRoughness":{
				"metallicFactor":0,
				"roughnessFactor":0
			}
		}
	],
	"meshes":[
		{
			"extras":{
				"targetNames":[
					"\u9ad8\u3055\u5909\u66f4",
					"\u6a2a\u5e45\u5909\u66f4"
				]
			},
			"name":"Plane.203",
			"primitives":[
				{
					"attributes":{
						"POSITION":0,
						"NORMAL":1,
						"TEXCOORD_0":2,
						"COLOR_0":3,
						"COLOR_1":4
					},
					"indices":5,
					"material":0,
					"targets":[
						{
							"POSITION":6,
							"NORMAL":7
						},
						{
							"POSITION":8,
							"NORMAL":9
						}
					]
				}
			],
			"weights":[
				0,
				0
			]
		},
		{
			"name":"Plane",
			"primitives":[
				{
					"attributes":{
						"POSITION":10,
						"NORMAL":11,
						"TEXCOORD_0":12
					},
					"indices":13
				}
			]
		},
		{
			"extras":{
				"targetNames":[
					"\u9ad8\u3055\u5909\u66f4",
					"\u6a2a\u5e45\u5909\u66f4"
				]
			},
			"name":"Cube.004",
			"primitives":[
				{
					"attributes":{
						"POSITION":14,
						"NORMAL":15,
						"TEXCOORD_0":16,
						"COLOR_0":17,
						"COLOR_1":18
					},
					"indices":19,
					"material":1,
					"targets":[
						{
							"POSITION":20,
							"NORMAL":21
						},
						{
							"POSITION":22,
							"NORMAL":23
						}
					]
				}
			],
			"weights":[
				0,
				0
			]
		}
	],
	"accessors":[
		{
			"bufferView":0,
			"componentType":5126,
			"count":43359,
			"max":[
				21.748855590820312,
				6.864666938781738,
				0.2104608416557312
			],
			"min":[
				-5.152878761291504,
				-72.4657211303711,
				-26.808399200439453
			],
			"type":"VEC3"
		},
		{
			"bufferView":1,
			"componentType":5126,
			"count":43359,
			"type":"VEC3"
		},
		{
			"bufferView":2,
			"componentType":5126,
			"count":43359,
			"type":"VEC2"
		},
		{
			"bufferView":3,
			"componentType":5121,
			"count":43359,
			"normalized":true,
			"type":"VEC4"
		},
		{
			"bufferView":4,
			"componentType":5126,
			"count":43359,
			"type":"VEC3"
		},
		{
			"bufferView":5,
			"componentType":5123,
			"count":148194,
			"type":"SCALAR"
		},
		{
			"componentType":5126,
			"count":43359,
			"max":[
				1.3181896209716797,
				0,
				1.3181648254394531
			],
			"min":[
				-1.3181953430175781,
				-33.09629440307617,
				-1.3182220458984375
			],
			"sparse":{
				"count":19970,
				"indices":{
					"bufferView":6,
					"componentType":5123
				},
				"values":{
					"bufferView":7
				}
			},
			"type":"VEC3"
		},
		{
			"componentType":5126,
			"count":43359,
			"sparse":{
				"count":34062,
				"indices":{
					"bufferView":8,
					"componentType":5123
				},
				"values":{
					"bufferView":9
				}
			},
			"type":"VEC3"
		},
		{
			"componentType":5126,
			"count":43359,
			"max":[
				24.89325714111328,
				0,
				1.71661376953125e-05
			],
			"min":[
				0,
				0,
				0
			],
			"sparse":{
				"count":22308,
				"indices":{
					"bufferView":10,
					"componentType":5123
				},
				"values":{
					"bufferView":11
				}
			},
			"type":"VEC3"
		},
		{
			"componentType":5126,
			"count":43359,
			"sparse":{
				"count":34020,
				"indices":{
					"bufferView":12,
					"componentType":5123
				},
				"values":{
					"bufferView":13
				}
			},
			"type":"VEC3"
		},
		{
			"bufferView":14,
			"componentType":5126,
			"count":4,
			"max":[
				1,
				0,
				1
			],
			"min":[
				-1,
				0,
				-1
			],
			"type":"VEC3"
		},
		{
			"bufferView":15,
			"componentType":5126,
			"count":4,
			"type":"VEC3"
		},
		{
			"bufferView":16,
			"componentType":5126,
			"count":4,
			"type":"VEC2"
		},
		{
			"bufferView":17,
			"componentType":5123,
			"count":6,
			"type":"SCALAR"
		},
		{
			"bufferView":18,
			"componentType":5126,
			"count":90138,
			"max":[
				14.722461700439453,
				46.86313247680664,
				27.261945724487305
			],
			"min":[
				-14.712884902954102,
				-44.478275299072266,
				-27.2600154876709
			],
			"type":"VEC3"
		},
		{
			"bufferView":19,
			"componentType":5126,
			"count":90138,
			"type":"VEC3"
		},
		{
			"bufferView":20,
			"componentType":5126,
			"count":90138,
			"type":"VEC2"
		},
		{
			"bufferView":21,
			"componentType":5121,
			"count":90138,
			"normalized":true,
			"type":"VEC4"
		},
		{
			"bufferView":22,
			"componentType":5126,
			"count":90138,
			"type":"VEC3"
		},
		{
			"bufferView":23,
			"componentType":5125,
			"count":170076,
			"type":"SCALAR"
		},
		{
			"componentType":5126,
			"count":90138,
			"max":[
				2.3920278549194336,
				0,
				4.430845260620117
			],
			"min":[
				-2.3920297622680664,
				-48.51762771606445,
				-4.43048095703125
			],
			"sparse":{
				"count":48309,
				"indices":{
					"bufferView":24,
					"componentType":5125
				},
				"values":{
					"bufferView":25
				}
			},
			"type":"VEC3"
		},
		{
			"componentType":5126,
			"count":90138,
			"sparse":{
				"count":26497,
				"indices":{
					"bufferView":26,
					"componentType":5125
				},
				"values":{
					"bufferView":27
				}
			},
			"type":"VEC3"
		},
		{
			"componentType":5126,
			"count":90138,
			"max":[
				2.715825080871582,
				0,
				0
			],
			"min":[
				-3.9854936599731445,
				0,
				-23.24871826171875
			],
			"sparse":{
				"count":43900,
				"indices":{
					"bufferView":28,
					"componentType":5125
				},
				"values":{
					"bufferView":29
				}
			},
			"type":"VEC3"
		},
		{
			"componentType":5126,
			"count":90138,
			"sparse":{
				"count":26399,
				"indices":{
					"bufferView":30,
					"componentType":5125
				},
				"values":{
					"bufferView":31
				}
			},
			"type":"VEC3"
		}
	],
	"bufferViews":[
		{
			"buffer":0,
			"byteLength":520308,
			"byteOffset":0,
			"target":34962
		},
		{
			"buffer":0,
			"byteLength":520308,
			"byteOffset":520308,
			"target":34962
		},
		{
			"buffer":0,
			"byteLength":346872,
			"byteOffset":1040616,
			"target":34962
		},
		{
			"buffer":0,
			"byteLength":173436,
			"byteOffset":1387488,
			"target":34962
		},
		{
			"buffer":0,
			"byteLength":520308,
			"byteOffset":1560924,
			"target":34962
		},
		{
			"buffer":0,
			"byteLength":296388,
			"byteOffset":2081232,
			"target":34963
		},
		{
			"buffer":0,
			"byteLength":39940,
			"byteOffset":2377620
		},
		{
			"buffer":0,
			"byteLength":239640,
			"byteOffset":2417560
		},
		{
			"buffer":0,
			"byteLength":68124,
			"byteOffset":2657200
		},
		{
			"buffer":0,
			"byteLength":408744,
			"byteOffset":2725324
		},
		{
			"buffer":0,
			"byteLength":44616,
			"byteOffset":3134068
		},
		{
			"buffer":0,
			"byteLength":267696,
			"byteOffset":3178684
		},
		{
			"buffer":0,
			"byteLength":68040,
			"byteOffset":3446380
		},
		{
			"buffer":0,
			"byteLength":408240,
			"byteOffset":3514420
		},
		{
			"buffer":0,
			"byteLength":48,
			"byteOffset":3922660,
			"target":34962
		},
		{
			"buffer":0,
			"byteLength":48,
			"byteOffset":3922708,
			"target":34962
		},
		{
			"buffer":0,
			"byteLength":32,
			"byteOffset":3922756,
			"target":34962
		},
		{
			"buffer":0,
			"byteLength":12,
			"byteOffset":3922788,
			"target":34963
		},
		{
			"buffer":0,
			"byteLength":1081656,
			"byteOffset":3922800,
			"target":34962
		},
		{
			"buffer":0,
			"byteLength":1081656,
			"byteOffset":5004456,
			"target":34962
		},
		{
			"buffer":0,
			"byteLength":721104,
			"byteOffset":6086112,
			"target":34962
		},
		{
			"buffer":0,
			"byteLength":360552,
			"byteOffset":6807216,
			"target":34962
		},
		{
			"buffer":0,
			"byteLength":1081656,
			"byteOffset":7167768,
			"target":34962
		},
		{
			"buffer":0,
			"byteLength":680304,
			"byteOffset":8249424,
			"target":34963
		},
		{
			"buffer":0,
			"byteLength":193236,
			"byteOffset":8929728
		},
		{
			"buffer":0,
			"byteLength":579708,
			"byteOffset":9122964
		},
		{
			"buffer":0,
			"byteLength":105988,
			"byteOffset":9702672
		},
		{
			"buffer":0,
			"byteLength":317964,
			"byteOffset":9808660
		},
		{
			"buffer":0,
			"byteLength":175600,
			"byteOffset":10126624
		},
		{
			"buffer":0,
			"byteLength":526800,
			"byteOffset":10302224
		},
		{
			"buffer":0,
			"byteLength":105596,
			"byteOffset":10829024
		},
		{
			"buffer":0,
			"byteLength":316788,
			"byteOffset":10934620
		}
	],
	"buffers":[
		{
			"byteLength":11251408,
			"uri":"building.bin"
		}
	]
}
