{"accessors" : [{"bufferView" : 0, "byteOffset" : 0, "componentType" : 5123, "count" : 606, "type" : "SCALAR", "max" : [393], "min" : [0]}, {"bufferView" : 1, "byteOffset" : 0, "componentType" : 5126, "count" : 394, "type" : "VEC3", "max" : [1.1894663572311401, 1.1193994283676147, 2.746619701385498], "min" : [-1.4056036472320557, -2.438612937927246, -2.419482707977295], "name" : "POSITION"}, {"bufferView" : 1, "byteOffset" : 12, "componentType" : 5126, "count" : 394, "type" : "VEC3", "max" : [0.9997623562812805, 1.0000044107437134, 0.998005211353302], "min" : [-0.9997623562812805, -0.9999995231628418, -0.998005211353302], "name" : "NORMAL"}, {"bufferView" : 1, "byteOffset" : 24, "componentType" : 5126, "count" : 394, "type" : "VEC2", "max" : [0.875, 2], "min" : [0, 1], "name" : "TEXCOORD_0"}, {"bufferView" : 0, "byteOffset" : 1212, "componentType" : 5123, "count" : 36, "type" : "SCALAR", "max" : [23], "min" : [0]}, {"bufferView" : 2, "byteOffset" : 0, "componentType" : 5126, "count" : 24, "type" : "VEC3", "max" : [1, 1, 1], "min" : [-1, -1, -1], "name" : "POSITION"}, {"bufferView" : 2, "byteOffset" : 12, "componentType" : 5126, "count" : 24, "type" : "VEC3", "max" : [1.0000044107437134, 1.0000044107437134, 1.0000044107437134], "min" : [-1.0000044107437134, -1.0000044107437134, -1.0000044107437134], "name" : "NORMAL"}, {"bufferView" : 2, "byteOffset" : 24, "componentType" : 5126, "count" : 24, "type" : "VEC2", "max" : [0.875, 2], "min" : [0.125, 1], "name" : "TEXCOORD_0"}], "asset" : {"generator" : "Aspose.3D 24.9.1", "version" : "2.0"}, "buffers" : [{"uri" : "data:application/octet-stream;base64,", "byteLength" : 14672}], "bufferViews" : [{"buffer" : 0, "byteOffset" : 0, "byteLength" : 1284, "target" : 34963}, {"buffer" : 0, "byteOffset" : 1288, "byteLength" : 12608, "byteStride" : 32, "target" : 34962}, {"buffer" : 0, "byteOffset" : 13900, "byteLength" : 768, "byteStride" : 32, "target" : 34962}], "materials" : [{"name" : "Material", "pbrMetallicRoughness" : {"baseColorFactor" : [0.17758294939994812, 0.8006061315536499, 0.1286190301179886, 1], "metallicFactor" : 0, "roughnessFactor" : 0.5}, "emissiveFactor" : [0, 0, 0], "alphaMode" : "OPAQUE", "doubleSided" : true}], "meshes" : [{"primitives" : [{"attributes" : {"POSITION" : 1, "NORMAL" : 2, "TEXCOORD_0" : 3}, "indices" : 0, "material" : 0, "mode" : 4}]}, {"primitives" : [{"attributes" : {"POSITION" : 5, "NORMAL" : 6, "TEXCOORD_0" : 7}, "indices" : 4, "mode" : 4}]}], "nodes" : [{"matrix" : [2.846752643585205, 0, 0, 0, 0, -3.0804673270164766, 0.07377863334341617, 0, 0, -0.010695792706352123, -0.44657970031914473, 0, 0, 0, 0, 1], "mesh" : 0, "name" : "Cube"}, {"mesh" : 1, "name" : "Cube.001"}], "scene" : 0, "scenes" : [{"nodes" : [0, 1]}]}